<?xml version="1.0" encoding="utf-8"?>
<!-- Generator: Adobe Illustrator 26.2.1, SVG Export Plug-In . SVG Version: 6.00 Build 0)  -->
<svg version="1.1" id="Layer_1" xmlns="http://www.w3.org/2000/svg" xmlns:xlink="http://www.w3.org/1999/xlink" x="0px" y="0px"
	 viewBox="0 0 965 187" style="enable-background:new 0 0 965 187;" xml:space="preserve">
<style type="text/css">
	.st0{fill:none;}
	.st1{fill:#1C2C4C;}
	.st2{fill:#EDEDED;}
</style>
<rect y="0" class="st0" width="165" height="186.6"/>
<g>
	<path class="st1" d="M165,72.9l-21.6,14.5l21.6,13.1v37l-23.6,14.8L121,165.2l-38,21.4L0,137.1l0.1-86L83.2,0L165,51V72.9z"/>
	<path class="st2" d="M142.3,112.9v39l-20.1,12.6v-25L83.1,163l-59-35.8V57.9l59-34.1l58.9,34.4L120.4,72L83.1,50.8L46.8,71.7V116
		l36.4,19l24.2-13.4l-33-21.1l8.8-5.5l12.1-7.6L142.3,112.9z"/>
</g>
<path class="st1" d="M283.5,109.7c0,12.4-9.2,21.1-25.8,21.1h-39.1V55.3h37c16.5,0,25.8,8,25.8,20.4c0,8.3-4.1,14.4-12.6,16.3
	C278.6,93.8,283.5,100.7,283.5,109.7z M266.4,108.3c0-6.1-3.6-9.8-10.7-9.8h-20v19.5h20C262.8,118.1,266.4,114.5,266.4,108.3z
	 M264.3,77.1c0-6.1-3.6-9-10.7-9h-17.9v18h17.9C260.7,86.1,264.3,83.2,264.3,77.1z M325.2,131.9c-23.3,0-36.6-15.8-36.6-38.8
	c0-23,14.1-38.8,38.3-38.8c22.6,0,34.7,12.9,34.7,26.5h-15.5c-1.9-7-8.3-12.6-19.2-12.6c-14.1,0-21.2,8.9-21.2,24.9
	c0,16,7.1,24.9,21.2,24.9c12.5,0,18.3-6.7,19.3-17.7h-17.3V88.7h33.5v42.1h-12.2l-1.6-11.2C345.1,127.6,337.8,131.9,325.2,131.9z
	 M465,130.8h-9.4l-7.5-19.1h-36.3l-7.5,19.1h-9.4l29.6-75.5h11L465,130.8z M445.6,104.6L429.9,64l-15.8,40.6H445.6z M488.3,131.9
	c-12.5,0-18.3-6.4-18.3-19.6V76.1h8.8v34.8c0,9.1,3.3,13.9,12.1,13.9c9.1,0,15.1-7.1,15.1-18.1V76.1h8.8v54.7h-8.4v-10.1
	C503.2,127.5,497.6,131.9,488.3,131.9z M545.1,131.3c-10.5,0-14.4-3.1-14.4-13.2V82.5h-9.3v-6.4h9.3V59.6h8.8v16.5h13.1v6.4h-13.1
	v35.8c0,5.3,1.8,6.6,7.4,6.6l5.7-0.2v6.1C550.5,131,547,131.3,545.1,131.3z M582,131.9c-16.9,0-26.2-10.8-26.2-28.4
	c0-17.5,9.3-28.4,26.2-28.4c17,0,26.3,10.9,26.3,28.4C608.3,121.1,599,131.9,582,131.9z M582,125.1c11.1,0,17.5-7.3,17.5-21.6
	c0-14.3-6.4-21.6-17.5-21.6c-11,0-17.4,7.3-17.4,21.6C564.6,117.8,571,125.1,582,125.1z M688.6,130.8h-8.5v-35
	c0-9.1-2.8-13.7-10.1-13.7c-7.4,0-13,6.9-13,17.9v30.7h-8.4v-35c0-9.1-2.9-13.7-10-13.7c-7.4,0-12.8,6.9-12.8,17.9v30.7h-8.5V76.1
	h8.4v10.1c2.5-6.8,8-11.1,15.5-11.1c8.4,0,13.2,3.9,15.1,11.8c2.8-7.7,8.7-11.8,16.2-11.8c10.9,0,16.1,6.4,16.1,19.6V130.8z
	 M723.9,131.9c-16.9,0-26.2-10.8-26.2-28.4c0-17.5,9.3-28.4,26.2-28.4c17,0,26.3,10.9,26.3,28.4
	C750.2,121.1,740.9,131.9,723.9,131.9z M723.9,125.1c11.1,0,17.5-7.3,17.5-21.6c0-14.3-6.4-21.6-17.5-21.6c-11,0-17.4,7.3-17.4,21.6
	C706.5,117.8,712.9,125.1,723.9,125.1z M786.9,131.9c-9.9,0-16.2-4.2-19.3-12v10.9h-8.4V55.3h8.8v31.2c3.1-7.6,9.5-11.4,18.9-11.4
	c14.7,0,23.7,10.5,23.7,28.4C810.7,121.4,801.7,131.9,786.9,131.9z M784.9,125.1c10.1,0,17-6.7,17-21.6c0-14.9-6.9-21.6-17-21.6
	c-10,0-16.9,6.7-16.9,21.6C768.1,118.4,775,125.1,784.9,125.1z M828.6,130.8h-8.8V76.1h8.8V130.8z M824.2,65.2
	c-3.5,0-5.4-2.1-5.4-4.9s1.9-4.9,5.4-4.9c3.5,0,5.5,2.1,5.5,4.9S827.7,65.2,824.2,65.2z M848.7,130.8h-8.8V55.3h8.8V130.8z
	 M884.1,131.9c-16.9,0-26.2-10.8-26.2-28.4c0-16.9,8.7-28.4,25.5-28.4c17,0,25.7,11.9,25.7,27.1c0,0.8,0,1.8-0.2,2.7h-42.2
	c0.2,14.8,7.2,20.9,17.4,20.9c8.8,0,14.1-4.7,16-11.6h7.8C905.4,125.1,897.8,131.9,884.1,131.9z M883.4,81.2
	c-9.4,0-15.6,5.8-16.7,17.7h33.6C899.1,87,892.9,81.2,883.4,81.2z M938.6,131.9c-16.6,0-22.6-7.5-22.6-17.7h8.4
	c0.5,6.8,3.3,11.7,14.3,11.7c10.9,0,13.8-4.9,13.8-10.2c0-5-3.4-7.4-9-8.3l-10.7-1.6c-10.3-1.5-15.3-5.3-15.3-14.1
	c0-9.1,5.2-16.6,21.1-16.6c16,0,21.2,7.5,21.2,16.9h-8.4c-0.5-5.6-2.2-10.8-12.8-10.8c-9,0-12.3,3.7-12.3,10c0,5.3,3,7,7.6,7.6
	l10.8,1.6c10.2,1.5,16.5,5.4,16.5,14.9C961.3,124.3,955.4,131.9,938.6,131.9z"/>
</svg>
